<svg width="90" height="64" viewBox="0 0 90 64" fill="none" xmlns="http://www.w3.org/2000/svg">
<path fill-rule="evenodd" clip-rule="evenodd" d="M19.4706 49.4004L13.5324 49.345L13.6091 41.1304L18.8545 41.1794C20.5402 41.1951 22.5926 41.5519 23.4149 42.8815C24.1138 44.0109 23.9439 46.0165 23.4904 47.2015C23.284 47.7404 22.9637 48.0238 22.5736 48.3653C21.8555 48.9935 20.492 49.4099 19.4706 49.4004ZM17.32 35.9186L13.6581 35.8845L13.732 27.9672C13.7358 27.5599 13.9194 27.7716 14.8208 27.78C17.1122 27.8022 19.9336 27.5455 21.6504 28.4325C23.6465 29.4639 23.5259 33.4142 22.1595 34.7553C21.1989 35.6978 19.2194 35.9364 17.32 35.9186L17.32 35.9186ZM5.86889 22.0544L5.56587 54.5162C5.56269 54.8572 5.63553 54.8998 5.65833 55.21L19.0194 55.3347C20.632 55.3497 21.8745 55.2446 23.1913 54.989C25.6885 54.5059 28.5503 52.8915 30.0317 50.6689C31.5649 48.3678 32.2609 44.9813 31.1461 42.3532C30.9892 41.9839 30.7915 41.5655 30.5767 41.2452C29.5821 39.7645 27.8016 38.7745 26.1171 38.2675C25.7262 38.1496 25.724 38.2646 25.5159 37.9746C26.0362 37.9367 27.1091 37.2958 27.537 37.0369C30.4522 35.2719 31.6239 32.0377 30.7911 28.679C30.6317 28.0359 30.3815 27.2215 30.109 26.7007C28.2668 23.1764 23.3888 21.9207 19.1336 21.8809L6.16852 21.7599C5.94044 21.7578 5.87094 21.826 5.86881 22.0544L5.86889 22.0544Z" fill="white"/>
<path fill-rule="evenodd" clip-rule="evenodd" d="M45.499 49.7425C41.6513 49.7065 39.5299 46.9153 38.102 46.902C37.2485 46.894 36.9452 46.8114 36.1891 47.65C36.0134 47.8449 35.9242 47.9944 35.7813 48.2341L33.8039 51.4146C34.54 52.5367 37.2883 53.991 38.5956 54.5566C42.8676 56.4038 49.0236 56.7107 52.9275 53.8136L54.6592 52.2811C56.5183 50.3131 58.0144 46.2917 57.1289 42.5444C56.8123 41.2053 55.8406 39.3621 54.8244 38.5295C50.303 34.8265 42.5689 34.9323 42.6009 31.5027C42.6103 30.5009 42.6977 29.8677 43.3814 29.1014C43.6157 28.8382 43.5438 28.8896 43.8507 28.68C45.5266 27.535 48.6097 27.919 50.3482 28.8019C51.6446 29.4607 53.6729 31.1089 54.9116 29.3585L57.0089 25.5006C57.0115 25.2234 56.8453 25.1967 56.6646 25.0539C55.7771 24.3553 55.1534 23.8313 54.0732 23.3811C51.4337 22.2798 49.9868 21.7733 46.5523 21.7413C40.0169 21.6803 34.8264 26.387 35.263 32.2304C35.4292 34.4567 35.5944 35.8179 37.0557 37.7304C40.1301 41.7542 46.7245 41.3883 49.2399 43.9128C49.877 44.5528 50.0147 45.6274 49.8844 46.7155C49.7684 47.6844 49.3335 48.5135 48.5191 49.0223C47.8198 49.4593 46.5974 49.7527 45.499 49.7425Z" fill="white"/>
<path fill-rule="evenodd" clip-rule="evenodd" d="M61.9868 22.38L61.6893 54.2481C61.6865 54.5538 61.638 54.471 61.6368 54.644C61.6355 54.817 61.6848 54.7352 61.6819 55.04C61.6781 55.4498 61.4079 55.9285 61.9706 55.9338L69.492 56.004C69.7204 56.0061 69.7899 55.9379 69.792 55.7095L70.0313 30.0766C70.0442 28.6943 69.4384 26.8402 68.8633 25.8287C67.5667 23.5457 65.5708 22.2564 62.9745 21.7039C61.5013 21.3903 61.9939 21.6192 61.9868 22.38Z" fill="white"/>
<path fill-rule="evenodd" clip-rule="evenodd" d="M71.0161 9.39872C70.9959 11.5588 70.5967 13.3052 69.3539 14.9985C68.8161 15.7309 68.4354 16.0968 67.8065 16.7192C67.0932 17.4255 66.2393 17.6435 65.8862 18.16C67.5693 18.2135 69.5573 19.6556 70.6871 20.8033C72.3435 22.4858 72.6525 23.5687 73.1394 25.7501L73.4367 25.7529C73.6979 24.677 75.5451 23.1036 76.4549 22.5334C77.6959 21.7564 79.3156 21.1559 81.2991 21.1745C83.3339 21.1934 83.5012 21.8022 82.1842 20.1086C80.7609 18.2796 80.1238 14.7371 80.9292 12.4056C81.0509 12.0541 81.182 11.7655 81.3323 11.4176C81.4945 11.0451 81.6543 10.8413 81.6963 10.3892C81.0596 10.3975 81.0784 10.6282 80.4085 10.8754C77.7345 11.8619 74.4082 11.1967 72.09 9.42327C71.9074 9.28367 71.7563 9.18626 71.5906 9.03086C71.3334 8.7907 71.3778 8.70529 71.0235 8.60699C70.8506 8.95777 71.0203 8.94718 71.0161 9.39872Z" fill="#F9AE3E"/>
</svg>
