<svg width="42" height="30" viewBox="0 0 42 30" fill="none" xmlns="http://www.w3.org/2000/svg">
<path fill-rule="evenodd" clip-rule="evenodd" d="M9.46576 23.2589H6.69474V19.4256H9.14247C9.92907 19.4256 10.8883 19.5831 11.2778 20.1999C11.6088 20.7239 11.5382 21.6604 11.3318 22.2153C11.2379 22.4677 11.0896 22.6013 10.9091 22.7624C10.5767 23.0586 9.94239 23.2589 9.46576 23.2589ZM8.40352 16.9776H6.69474V13.2831C6.69474 13.093 6.78134 13.191 7.20197 13.191C8.27123 13.1914 9.58657 13.0593 10.3915 13.4657C11.3274 13.9383 11.2883 15.782 10.6566 16.4137C10.2125 16.8577 9.28989 16.9776 8.40356 16.9776H8.40352ZM3.00004 10.5584V25.7065C3.00004 25.8656 3.03421 25.8852 3.0462 26.0298H9.28103C10.0336 26.0298 10.6129 25.9753 11.2262 25.8503C12.3893 25.614 13.7176 24.8483 14.3991 23.8047C15.1045 22.7244 15.4145 21.1412 14.8829 19.9198C14.808 19.7481 14.714 19.5537 14.6124 19.4052C14.1418 18.7187 13.3067 18.2645 12.5185 18.0353C12.3356 17.982 12.3351 18.0356 12.2367 17.9012C12.4793 17.8813 12.9771 17.5776 13.1757 17.4549C14.5282 16.6187 15.0609 15.1045 14.6577 13.5409C14.5805 13.2415 14.4602 12.8626 14.3308 12.6208C13.4559 10.9844 11.1743 10.4197 9.18863 10.4197H3.13856C3.03213 10.4197 3 10.4518 3 10.5584H3.00004Z" fill="#02A5A1"/>
<path fill-rule="evenodd" clip-rule="evenodd" d="M21.6122 23.3051C19.8167 23.3051 18.8146 22.0119 18.1484 22.0119C17.7501 22.0119 17.6082 21.9747 17.259 22.3693C17.1779 22.461 17.1369 22.5312 17.0713 22.6436L16.1625 24.1363C16.5108 24.6567 17.7995 25.3232 18.412 25.5815C20.4134 26.4248 23.2871 26.5412 25.0961 25.1724L25.8974 24.4498C26.7563 23.5234 27.4369 21.6405 27.0073 19.8959C26.8538 19.2724 26.3924 18.4165 25.9146 18.0325C23.7888 16.3244 20.1805 16.4074 20.1805 14.807C20.1805 14.3395 20.2185 14.0437 20.5342 13.6832C20.6424 13.5593 20.6091 13.5836 20.7513 13.4845C21.5283 12.9429 22.9686 13.1087 23.7836 13.5131C24.3914 13.8148 25.345 14.5751 25.9153 13.7529L26.8771 11.9437C26.8771 11.8143 26.7995 11.8026 26.7145 11.7367C26.2974 11.4146 26.0041 11.1728 25.4981 10.9675C24.2617 10.4651 23.5844 10.2351 21.9817 10.2351C18.932 10.2351 16.5306 12.4539 16.7597 15.1785C16.847 16.2166 16.93 16.851 17.6202 17.737C19.0722 19.6012 22.1476 19.4017 23.3323 20.5687C23.6324 20.8646 23.7013 21.3654 23.6452 21.8736C23.5953 22.3262 23.396 22.715 23.0182 22.956C22.6938 23.1629 22.1247 23.3051 21.6122 23.3051Z" fill="#02A5A1"/>
<path fill-rule="evenodd" clip-rule="evenodd" d="M29.1862 10.4659V25.3369C29.1862 25.4796 29.1632 25.4412 29.1634 25.5219C29.1636 25.6026 29.1862 25.5642 29.1862 25.7065C29.1862 25.8977 29.0622 26.1222 29.3248 26.1222H32.8346C32.9412 26.1222 32.9733 26.0901 32.9733 25.9835V14.0221C32.9733 13.3771 32.6826 12.5146 32.4098 12.0451C31.7949 10.9855 30.858 10.3926 29.6441 10.1461C28.9554 10.0062 29.1862 10.1109 29.1862 10.4659Z" fill="#02A5A1"/>
<path fill-rule="evenodd" clip-rule="evenodd" d="M33.3428 4.36946C33.3428 5.37742 33.1641 6.19407 32.5916 6.98957C32.3438 7.33363 32.1678 7.50605 31.877 7.79917C31.5473 8.13187 31.1499 8.23728 30.9873 8.47985C31.7729 8.49748 32.7068 9.1617 33.2389 9.69229C34.0192 10.4701 34.1681 10.9741 34.4048 11.9898H34.5435C34.6606 11.4867 35.5157 10.7445 35.9377 10.4745C36.5134 10.1065 37.2666 9.81925 38.1922 9.81925C39.1417 9.81925 39.2224 10.1026 38.6005 9.31805C37.9284 8.47083 37.6157 6.82067 37.9813 5.72932C38.0366 5.56473 38.0966 5.42954 38.1651 5.26652C38.2392 5.09202 38.3129 4.99621 38.3305 4.78511C38.0335 4.79173 38.0433 4.8993 37.7317 5.01757C36.4883 5.4895 34.9334 5.19363 33.844 4.37623C33.7582 4.31189 33.6872 4.2671 33.6093 4.19531C33.4882 4.08437 33.5086 4.04432 33.3428 4C33.2636 4.16443 33.3428 4.15875 33.3428 4.36946Z" fill="#F9AE3E"/>
</svg>
