<svg width="114" height="40" viewBox="0 0 114 40" fill="none" xmlns="http://www.w3.org/2000/svg">
<path fill-rule="evenodd" clip-rule="evenodd" d="M9.40488 32.0132H5.37424V26.4375H8.93463C10.0788 26.4375 11.474 26.6666 12.0406 27.5638C12.5221 28.3259 12.4194 29.6882 12.1192 30.4953C11.9825 30.8624 11.7669 31.0568 11.5043 31.291C11.0209 31.722 10.0982 32.0132 9.40488 32.0132ZM7.85978 22.8767H5.37424V17.5028C5.37424 17.2263 5.50021 17.3688 6.11205 17.3688C7.66735 17.3694 9.58061 17.1773 10.7514 17.7684C12.1128 18.4558 12.0559 21.1376 11.1371 22.0565C10.4911 22.7023 9.14907 22.8767 7.85984 22.8767H7.85978ZM5.65338e-05 13.5395V35.5735C5.65338e-05 35.8049 0.0497604 35.8334 0.0672024 36.0437H9.13618C10.2308 36.0437 11.0734 35.9645 11.9655 35.7826C13.6573 35.4389 15.5894 34.3252 16.5808 32.8072C17.6068 31.2358 18.0577 28.933 17.2844 27.1563C17.1756 26.9066 17.0388 26.6239 16.891 26.4079C16.2065 25.4092 14.9918 24.7486 13.8454 24.4151C13.5793 24.3376 13.5785 24.4157 13.4355 24.2202C13.7883 24.1911 14.5124 23.7494 14.8012 23.571C16.7686 22.3546 17.5433 20.1521 16.9569 17.8778C16.8446 17.4423 16.6696 16.8911 16.4814 16.5395C15.2087 14.1591 11.89 13.3378 9.00178 13.3378H0.201552C0.0467397 13.3378 0 13.3845 0 13.5395H5.65338e-05Z" fill="white"/>
<path fill-rule="evenodd" clip-rule="evenodd" d="M27.0725 32.0805C24.4608 32.0805 23.0033 30.1995 22.0342 30.1995C21.4548 30.1995 21.2484 30.1453 20.7406 30.7193C20.6226 30.8527 20.5629 30.9547 20.4675 31.1183L19.1456 33.2894C19.6523 34.0464 21.5267 35.016 22.4177 35.3916C25.3288 36.6182 29.5088 36.7875 32.1401 34.7965L33.3057 33.7454C34.5549 32.398 35.5449 29.6591 34.9201 27.1215C34.6968 26.2146 34.0256 24.9697 33.3306 24.4111C30.2385 21.9265 24.99 22.0473 24.99 19.7195C24.99 19.0395 25.0453 18.6091 25.5045 18.0847C25.6619 17.9046 25.6134 17.9399 25.8203 17.7957C26.9505 17.008 29.0455 17.2491 30.231 17.8373C31.115 18.2762 32.5021 19.382 33.3317 18.1862L34.7307 15.5545C34.7307 15.3664 34.6178 15.3493 34.4942 15.2535C33.8875 14.785 33.4608 14.4333 32.7248 14.1346C30.9264 13.4039 29.9412 13.0693 27.61 13.0693C23.174 13.0693 19.681 16.2966 20.0143 20.2598C20.1412 21.7697 20.262 22.6926 21.2659 23.9813C23.378 26.6928 27.8513 26.4027 29.5745 28.1002C30.011 28.5305 30.1113 29.259 30.0297 29.9983C29.9571 30.6566 29.6672 31.2221 29.1177 31.5726C28.6458 31.8736 27.8181 32.0805 27.0725 32.0805Z" fill="white"/>
<path fill-rule="evenodd" clip-rule="evenodd" d="M38.0896 13.405V35.0359C38.0896 35.2434 38.0561 35.1875 38.0564 35.3049C38.0567 35.4223 38.0896 35.3665 38.0896 35.5734C38.0896 35.8515 37.9093 36.1782 38.2912 36.1782H43.3964C43.5515 36.1782 43.5982 36.1314 43.5982 35.9764V18.5777C43.5982 17.6395 43.1753 16.3849 42.7785 15.7021C41.8841 14.1608 40.5213 13.2984 38.7556 12.9398C37.7538 12.7363 38.0896 12.8885 38.0896 13.405Z" fill="white"/>
<path fill-rule="evenodd" clip-rule="evenodd" d="M44.1357 4.5374C44.1357 6.00355 43.8758 7.19143 43.043 8.34853C42.6827 8.84899 42.4266 9.09979 42.0037 9.52615C41.5241 10.0101 40.9459 10.1634 40.7095 10.5162C41.8522 10.5419 43.2106 11.508 43.9847 12.2798C45.1195 13.4113 45.3361 14.1443 45.6804 15.6217H45.8822C46.0526 14.8898 47.2964 13.8103 47.9103 13.4175C48.7476 12.8823 49.8431 12.4645 51.1895 12.4645C52.5706 12.4645 52.688 12.8766 51.7834 11.7355C50.8059 10.5031 50.351 8.10286 50.8828 6.51541C50.9632 6.27601 51.0504 6.07936 51.1501 5.84224C51.2579 5.58842 51.365 5.44905 51.3907 5.142C50.9586 5.15163 50.9729 5.30809 50.5197 5.48012C48.7111 6.16657 46.4493 5.73622 44.8647 4.54726C44.7399 4.45366 44.6367 4.38851 44.5233 4.28409C44.3472 4.12272 44.3768 4.06447 44.1357 4C44.0206 4.23917 44.1357 4.23091 44.1357 4.5374Z" fill="#F9AE3E"/>
<path fill-rule="evenodd" clip-rule="evenodd" d="M53.0032 26.7732C51.8512 26.7732 52.1294 27.378 52.1294 24.6238C53.4495 24.6238 54.8842 24.3718 54.8842 25.7655C54.8842 26.222 54.6231 26.5042 54.3016 26.6609C53.7835 26.914 53.5572 26.7732 53.0032 26.7732ZM53.0032 23.9517C51.8654 23.9517 52.1294 24.3217 52.1294 21.8023C52.8949 21.8023 54.0417 21.6626 54.4675 22.1511C54.6368 22.3449 55.2319 23.9517 53.0032 23.9517ZM51.1894 21.1975V27.5792C52.5175 27.5792 54.1871 27.7696 55.115 27.1392C55.9421 26.5766 56.0356 25.2576 55.4747 24.7047C55.4029 24.6334 55.1771 24.4619 55.0945 24.4129C54.9326 24.316 54.7439 24.2664 54.5479 24.2208C54.7172 23.9899 54.655 24.1558 54.9224 23.9905C55.921 23.3715 56.3337 20.9963 53.0032 20.9963H51.3906C51.2362 20.9963 51.1894 21.0424 51.1894 21.1975Z" fill="white"/>
<path fill-rule="evenodd" clip-rule="evenodd" d="M53.9437 29.5947V36.1109H54.8169C54.8169 35.3352 54.9326 31.7225 54.7496 31.3412C54.9919 31.3611 54.9714 31.3708 55.1008 31.5276C55.1618 31.6011 55.2592 31.7459 55.3259 31.8399L58.5789 36.1109C58.7499 36.1109 58.881 36.1189 59.0469 36.1286C59.2219 36.1383 59.3176 36.2209 59.3176 35.9764V29.5947L58.7129 29.5616C58.6245 29.5616 58.6177 29.5799 58.4444 29.5947V34.4311C58.2489 34.3006 58.0921 34.0162 57.9223 33.811C57.7262 33.5739 57.5882 33.3795 57.3984 33.1264L55.3641 30.4577C55.2615 30.3266 55.2017 30.2661 55.0951 30.1225C54.9149 29.8803 54.622 29.3313 53.9437 29.5947Z" fill="white"/>
<path fill-rule="evenodd" clip-rule="evenodd" d="M63.0124 35.3717L61.9676 35.3523C61.8051 35.3403 61.7362 35.3762 61.7362 35.1705V30.5352C61.7362 30.3562 61.6603 30.346 62.1676 30.354C62.4412 30.3585 62.4897 30.4018 62.8112 30.4047C63.2073 30.4081 63.6479 30.3169 64.0817 30.4731C65.3129 30.9183 65.7073 32.2162 65.5004 33.359C65.2656 34.6558 64.5309 35.3717 63.0124 35.3717ZM60.7957 36.111C61.4551 36.111 62.0502 36.0756 62.6692 36.1566C63.4188 36.2552 64.5599 36.0112 65.2588 35.5358C67.3621 34.1034 66.8263 29.5947 63.5499 29.5947H60.7957V36.111Z" fill="white"/>
<path fill-rule="evenodd" clip-rule="evenodd" d="M63.2142 27.5792H64.0202V22.6755C64.2071 22.7428 64.4312 23.1178 64.5577 23.2797L67.6169 27.2742C67.907 27.6812 67.8922 27.5792 68.5209 27.5792C68.6834 26.8827 68.5882 22.2793 68.5882 21.1975C68.5882 20.9108 68.3305 20.9957 67.7149 20.9957L67.7172 25.2308C67.6699 25.8054 67.634 25.2109 67.5804 25.6982H67.4459C67.3872 25.477 67.1711 25.2741 67.0338 25.1031L64.7583 22.1386C63.791 20.8743 64.0926 20.9957 63.2142 20.9957V27.5792Z" fill="white"/>
<path fill-rule="evenodd" clip-rule="evenodd" d="M68.2524 33.1549C68.2524 32.2583 68.2153 31.7618 68.844 30.9923C69.8153 29.8039 72.7531 30.1527 72.7531 32.5507C72.7531 33.4359 72.7542 33.9404 72.1517 34.703C71.1343 35.9918 68.2524 35.4298 68.2524 33.1549ZM67.2446 32.8192C67.2446 33.7278 67.6442 34.7207 68.0996 35.1887C68.9398 36.0522 69.5582 36.1782 70.8048 36.1782C71.5367 36.1782 72.5291 35.6965 72.9554 35.171C74.3365 33.4695 74.1604 29.756 70.5244 29.4676C69.6865 29.4015 68.7864 29.8329 68.2016 30.4172C67.6174 31.0009 67.2446 31.9317 67.2446 32.8192Z" fill="white"/>
<path fill-rule="evenodd" clip-rule="evenodd" d="M79.3366 29.9304C79.3366 30.7455 79.4312 30.4383 79.3548 31.2665C79.2984 31.8787 79.3634 32.1757 79.3725 32.4983L79.3714 33.1025C79.3913 33.408 79.4734 34.0122 79.3366 34.2972C79.0396 34.218 79.0459 34.0156 78.8464 33.7796L76.0255 30.151C75.5552 29.5235 75.7496 29.5947 75.0371 29.5947C74.7276 29.5947 74.9026 29.7874 74.9026 29.9977V36.1109C75.9183 36.1109 75.7091 36.6906 75.7091 34.0282L75.7074 31.6758C75.7781 31.3264 75.9189 31.4421 76.0733 31.641L79.2112 35.6988C79.3605 35.9086 79.4757 36.2666 80.2098 36.1109V29.5947C79.6364 29.5947 79.3366 29.3775 79.3366 29.9304Z" fill="white"/>
<path fill-rule="evenodd" clip-rule="evenodd" d="M96.0639 24.1535C94.5904 24.1535 94.9216 24.5753 94.9216 22.0035C94.9216 21.6826 95.3713 21.8022 96.1978 21.8022C96.7387 21.8022 97.3401 22.2246 97.3401 22.7427V23.1457C97.3401 23.6924 96.6168 24.1535 96.0639 24.1535ZM93.9811 21.1975V27.378C93.9811 27.6704 94.2661 27.5792 94.9216 27.5792V24.8922C96.1545 24.8922 95.7196 24.7275 97.0044 26.4375L97.6091 27.3102C97.8514 27.6892 98.2219 27.5792 98.8181 27.5792C98.7885 27.2258 97.722 25.9957 97.4199 25.5511C97.323 25.4081 97.27 25.3414 97.1691 25.1977C97.0505 25.0302 97.0477 24.9566 96.8698 24.8922V24.6238C98.4094 24.4955 99.55 20.9963 95.6609 20.9963C94.6924 20.9963 93.9811 20.8469 93.9811 21.1975Z" fill="white"/>
<path fill-rule="evenodd" clip-rule="evenodd" d="M108.693 21.1975V27.378C108.693 27.6704 108.978 27.5792 109.633 27.5792L109.632 26.5025C109.646 26.002 109.783 25.88 109.658 25.1288C109.617 24.8831 109.557 24.6237 109.835 24.6237H113.059V27.378C113.059 27.6704 113.344 27.5792 114 27.5792V20.9957C112.952 20.9957 113.046 20.9062 113.056 21.5292L113.059 23.8844C112.227 24.0788 110.521 23.8844 109.633 23.8844C109.633 23.5014 109.7 23.4199 109.7 23.0112C109.7 22.5837 109.608 22.3956 109.662 22.0319C109.715 21.6711 109.633 21.4112 109.633 20.9957C108.978 20.9957 108.693 20.9051 108.693 21.1975Z" fill="white"/>
<path fill-rule="evenodd" clip-rule="evenodd" d="M70.1334 21.1975V27.378C70.1334 27.6704 70.4178 27.5792 71.0739 27.5792C71.0739 26.9801 71.2357 26.2386 71.091 25.2758C71.0032 24.6921 71.0625 24.6232 71.4096 24.6232C72.044 24.6232 72.0662 25.0353 72.8049 25.7808C72.9845 25.9621 73.0318 26.0693 73.2062 26.2528C74.4431 27.5513 73.8771 27.5792 75.3728 27.5792C75.2634 27.1677 72.6493 24.3325 72.4846 24.0862C72.769 23.8953 74.4711 21.9048 74.8877 21.4511C75.069 21.2533 75.1465 21.2995 75.1716 20.9957C74.1479 20.9957 74.3001 20.9119 73.8116 21.4494L72.9645 22.4167C72.8135 22.6054 71.8046 23.7317 71.6507 23.7967C71.299 23.9449 71.3913 23.7847 71.0739 23.7499C71.3184 23.2404 71.0739 21.6005 71.0739 20.9957C70.4178 20.9957 70.1334 20.9051 70.1334 21.1975Z" fill="white"/>
<path fill-rule="evenodd" clip-rule="evenodd" d="M95.7948 33.6252C95.8142 33.3949 96.4857 31.7453 96.6208 31.4278C96.7154 31.2067 96.8163 30.8989 96.8699 30.6697H97.0044C97.0352 31.0437 97.3469 31.7305 97.4843 32.0702L98.0116 33.4907C97.5214 33.6685 98.0355 33.6269 97.0044 33.6252C96.6014 33.6246 96.1978 33.6252 95.7948 33.6252ZM96.3996 29.5947L94.8298 33.6007C94.7409 33.8521 94.6708 33.9729 94.595 34.1718C94.4377 34.5874 94.3191 34.9242 94.1384 35.3278C93.7103 36.282 93.8226 36.1457 94.2119 36.1412C94.8218 36.1338 94.7791 36.1782 95.0174 35.5347C95.165 35.1357 95.3656 34.7652 95.4591 34.3645H98.3479C98.789 35.1984 98.8175 36.0659 99.2302 36.1326C99.4103 36.1617 99.7512 36.1594 99.9598 36.111C99.9518 35.7479 98.8506 33.2011 98.6933 32.8095L98.0366 31.1822C97.905 30.8088 97.5242 29.8028 97.3401 29.5275C97.0038 29.5275 96.8214 29.5947 96.3996 29.5947Z" fill="white"/>
<path fill-rule="evenodd" clip-rule="evenodd" d="M104.931 22.0707C104.975 22.6013 105.98 24.7827 106.006 25.0934H103.722C103.787 24.8152 103.893 24.6026 103.991 24.3552L104.735 22.4121C104.817 22.1641 104.745 22.2069 104.931 22.0707ZM101.841 27.5791C102.94 27.5791 102.718 27.6225 103.03 26.8205C103.168 26.4671 103.292 26.1365 103.453 25.8327H106.342C106.421 26.1741 106.557 26.4705 106.678 26.7732C107.031 27.6572 106.905 27.5791 107.753 27.5791C108.135 27.5791 107.594 26.6141 107.359 26.0248L105.474 21.3262C105.309 20.9369 105.514 20.9956 104.528 20.9956C104.292 20.9956 104.287 21.2607 104.105 21.7156C103.987 22.0137 103.895 22.2411 103.779 22.5312C103.563 23.0733 103.338 23.6615 103.116 24.2196C102.945 24.6505 101.85 27.1767 101.841 27.5791Z" fill="white"/>
<path fill-rule="evenodd" clip-rule="evenodd" d="M88.9428 25.0941L89.8901 22.6151C90.101 22.2783 90.04 22.683 90.0851 22.2726H90.219C90.2458 22.5912 90.573 23.3709 90.6984 23.6742L91.2268 25.0268C90.6026 25.1721 89.6792 25.0941 88.9428 25.0941ZM87.0618 27.5793C87.7948 27.5793 87.9094 27.663 88.065 27.3062L88.6071 25.8328H91.5625C91.644 26.1822 91.7842 26.4928 91.9085 26.8303C92.2197 27.675 92.1285 27.5793 92.9733 27.5793C93.403 27.5793 92.8416 26.8172 92.5623 26.042C92.4568 25.7484 92.3497 25.472 92.2254 25.1699C92.1667 25.0262 92.0966 24.8928 92.0419 24.7492C91.9775 24.5805 91.9541 24.4653 91.8897 24.2966L90.8523 21.7738C90.516 20.8875 90.752 20.9958 89.7488 20.9958C89.5054 20.9958 89.494 21.2967 89.3361 21.7248C89.2415 21.9801 89.1166 22.2748 89.0101 22.541C88.7838 23.1059 88.5649 23.652 88.3392 24.2214C88.232 24.4904 88.1152 24.7794 88.012 25.0365L87.3536 26.6616C87.2345 26.9277 87.0692 27.2515 87.0618 27.5793Z" fill="white"/>
<path fill-rule="evenodd" clip-rule="evenodd" d="M58.2426 25.094C58.4262 24.3068 59.2732 22.6082 59.3177 22.0707C59.4738 22.1853 60.1886 24.133 60.2661 24.3467C60.4958 24.9834 60.7854 25.1071 59.9247 25.0957C59.365 25.0883 58.8029 25.094 58.2426 25.094ZM56.3616 27.5792C57.4868 27.5792 57.2087 27.6823 57.5706 26.7726C57.692 26.4665 57.8265 26.1781 57.9069 25.8327H60.7957C61.0801 26.3696 61.2522 27.0462 61.5344 27.5792H62.4076C62.3837 27.2873 61.9448 26.2146 61.8051 25.8983C61.564 25.3533 61.3714 24.76 61.1325 24.219C61.071 24.08 61.0465 23.9831 60.9878 23.8269L60.1624 21.7635C59.7794 20.8543 60.0672 20.9957 59.1831 20.9957C58.7847 20.9957 58.7876 21.3046 58.502 22.0616L57.6476 24.1626C57.419 24.7315 56.3708 27.1859 56.3616 27.5792Z" fill="white"/>
<path fill-rule="evenodd" clip-rule="evenodd" d="M84.7778 29.5947H81.7551V35.9764C81.7551 36.2643 81.9483 36.0825 82.3388 36.1286C82.5018 36.148 82.4779 36.1765 82.752 36.1691L85.7856 36.111V35.3717H82.8968C82.7423 35.3717 82.6956 35.3249 82.6956 35.1705V33.2222H85.0468C85.4099 33.2222 85.1894 32.8021 85.1808 32.4162H82.6956C82.6956 29.7731 82.5822 30.4007 83.2325 30.4007H85.5838C85.8642 30.4007 85.7856 30.1676 85.7856 29.5947C85.549 29.5947 85.4116 29.5554 85.3005 29.5491C85.0799 29.5372 85.0765 29.5947 84.7778 29.5947Z" fill="white"/>
<path fill-rule="evenodd" clip-rule="evenodd" d="M77.7241 22.7428C77.7241 25.1419 81.0454 24.1318 80.8288 25.8441C80.7228 26.678 80.0913 26.8405 79.4038 26.8405C78.774 26.8405 78.416 26.3925 77.9931 26.1685C76.6399 26.8844 78.5004 27.6465 79.6051 27.6465C80.8351 27.6465 81.7551 26.7898 81.7551 25.5643C81.7551 23.4535 78.583 24.0788 78.6178 22.6841C78.6372 21.9128 79.7094 21.3907 80.7735 22.0445C81.27 22.35 81.5374 22.2429 81.5533 21.5332C81.2609 21.4551 80.7958 20.929 79.8068 20.929C78.6731 20.929 77.7241 21.6586 77.7241 22.7428Z" fill="white"/>
<path fill-rule="evenodd" clip-rule="evenodd" d="M86.7261 31.3412C86.7261 32.1951 87.2567 32.6978 87.9938 32.9623C88.3415 33.0865 88.7353 33.2188 89.0876 33.3459C89.7727 33.5938 89.8161 33.8669 89.8161 34.3645C89.8161 35.3358 88.9514 35.3717 88.338 35.3717C87.6552 35.3717 87.2596 34.7675 86.9273 34.7675C86.717 34.7675 86.5243 35.1374 86.5243 35.3044C86.5243 35.476 86.4553 35.346 86.8059 35.6282C88.0468 36.6279 90.7565 36.4005 90.7565 34.0954C90.7565 31.8998 87.6666 32.7827 87.6666 31.2067C87.6666 30.57 88.1659 30.3272 88.7581 30.3009C89.5653 30.2662 89.7271 30.7575 90.2863 30.8037C90.5667 30.3853 90.8728 29.947 89.6034 29.6061C88.4748 29.3029 87.2545 29.6682 86.8845 30.627C86.8327 30.7615 86.7261 31.2004 86.7261 31.3412Z" fill="white"/>
<path fill-rule="evenodd" clip-rule="evenodd" d="M84.4421 25.9673V27.5792C85.6072 27.5792 85.4014 27.9013 85.3815 25.4959C85.3741 24.5759 85.4892 24.8461 86.033 23.8634C86.172 23.612 86.3191 23.4085 86.4702 23.1583C86.6691 22.8283 87.715 21.2169 87.7339 20.9963C87.0561 20.9963 86.8629 20.8709 86.5756 21.3155C86.3305 21.6945 85.003 23.8708 84.9796 24.1535C84.7442 24.0908 84.7094 23.8292 84.3783 23.2763L83.2554 21.3765C82.9801 20.892 82.927 20.9963 82.0909 20.9963C82.1142 21.2802 82.2351 21.385 82.3633 21.5971L83.4133 23.3008C84.1913 24.6135 84.4421 24.6392 84.4421 25.9673Z" fill="white"/>
<path fill-rule="evenodd" clip-rule="evenodd" d="M51.3234 29.5947L51.3177 35.7143C51.3279 36.3812 51.5725 36.111 51.7264 36.111C52.2285 36.111 52.2371 36.4222 52.2696 35.7137C52.3465 34.0242 52.3311 32.7212 52.3311 31.0055C52.3311 30.4366 52.2639 30.1505 52.2639 29.5947C51.752 29.552 51.8643 29.5383 51.3234 29.5947Z" fill="white"/>
<path fill-rule="evenodd" clip-rule="evenodd" d="M92.3018 29.5948H91.9661V36.111C93.1824 36.111 92.9066 36.8383 92.9066 33.2222C92.9066 32.0127 92.9066 30.8037 92.9066 29.5948C92.4745 29.4939 92.7173 29.5948 92.3018 29.5948Z" fill="white"/>
<path fill-rule="evenodd" clip-rule="evenodd" d="M99.8925 21.1975V27.5792H100.833V20.9963H100.094C99.9393 20.9963 99.8925 21.0424 99.8925 21.1975Z" fill="white"/>
<path fill-rule="evenodd" clip-rule="evenodd" d="M105.805 24.9595L105.824 24.9395C105.823 24.9407 105.798 24.9526 105.805 24.9595Z" fill="white"/>
</svg>
