<svg width="40" height="40" viewBox="0 0 40 40" fill="none" xmlns="http://www.w3.org/2000/svg">
<path fill-rule="evenodd" clip-rule="evenodd" d="M8.46576 28.2589H5.69474V24.4256H8.14247C8.92907 24.4256 9.88828 24.5831 10.2778 25.1999C10.6088 25.7239 10.5382 26.6604 10.3318 27.2153C10.2379 27.4677 10.0896 27.6013 9.90909 27.7624C9.57675 28.0586 8.94239 28.2589 8.46576 28.2589ZM7.40352 21.9776H5.69474V18.2831C5.69474 18.093 5.78134 18.191 6.20197 18.191C7.27123 18.1914 8.58657 18.0593 9.39151 18.4657C10.3274 18.9383 10.2883 20.782 9.65661 21.4137C9.21251 21.8577 8.28989 21.9776 7.40356 21.9776H7.40352ZM2.00004 15.5584V30.7065C2.00004 30.8656 2.03421 30.8852 2.0462 31.0298H8.28103C9.03358 31.0298 9.61288 30.9753 10.2262 30.8503C11.3893 30.614 12.7176 29.8483 13.3991 28.8047C14.1045 27.7244 14.4145 26.1412 13.8829 24.9198C13.808 24.7481 13.714 24.5537 13.6124 24.4052C13.1418 23.7187 12.3067 23.2645 11.5185 23.0353C11.3356 22.982 11.3351 23.0356 11.2367 22.9012C11.4793 22.8813 11.9771 22.5776 12.1757 22.4549C13.5282 21.6187 14.0609 20.1045 13.6577 18.5409C13.5805 18.2415 13.4602 17.8626 13.3308 17.6208C12.4559 15.9844 10.1743 15.4197 8.18863 15.4197H2.13856C2.03213 15.4197 2 15.4518 2 15.5584H2.00004Z" fill="#02A5A1"/>
<path fill-rule="evenodd" clip-rule="evenodd" d="M20.6122 28.3051C18.8167 28.3051 17.8146 27.0119 17.1484 27.0119C16.7501 27.0119 16.6082 26.9747 16.259 27.3693C16.1779 27.461 16.1369 27.5312 16.0713 27.6436L15.1625 29.1363C15.5108 29.6567 16.7995 30.3232 17.412 30.5815C19.4134 31.4248 22.2871 31.5412 24.0961 30.1724L24.8974 29.4498C25.7563 28.5234 26.4369 26.6405 26.0073 24.8959C25.8538 24.2724 25.3924 23.4165 24.9146 23.0325C22.7888 21.3244 19.1805 21.4074 19.1805 19.807C19.1805 19.3395 19.2185 19.0437 19.5342 18.6832C19.6424 18.5593 19.6091 18.5836 19.7513 18.4845C20.5283 17.9429 21.9686 18.1087 22.7836 18.5131C23.3914 18.8148 24.345 19.5751 24.9153 18.7529L25.8771 16.9437C25.8771 16.8143 25.7995 16.8026 25.7145 16.7367C25.2974 16.4146 25.0041 16.1728 24.4981 15.9675C23.2617 15.4651 22.5844 15.2351 20.9817 15.2351C17.932 15.2351 15.5306 17.4539 15.7597 20.1785C15.847 21.2166 15.93 21.851 16.6202 22.737C18.0722 24.6012 21.1476 24.4017 22.3323 25.5687C22.6324 25.8646 22.7013 26.3654 22.6452 26.8736C22.5953 27.3262 22.396 27.715 22.0182 27.956C21.6938 28.1629 21.1247 28.3051 20.6122 28.3051Z" fill="#02A5A1"/>
<path fill-rule="evenodd" clip-rule="evenodd" d="M28.1862 15.4659V30.3369C28.1862 30.4796 28.1632 30.4412 28.1634 30.5219C28.1636 30.6026 28.1862 30.5642 28.1862 30.7065C28.1862 30.8977 28.0622 31.1222 28.3248 31.1222H31.8346C31.9412 31.1222 31.9733 31.0901 31.9733 30.9835V19.0221C31.9733 18.3771 31.6826 17.5146 31.4098 17.0451C30.7949 15.9855 29.858 15.3926 28.6441 15.1461C27.9554 15.0062 28.1862 15.1109 28.1862 15.4659Z" fill="#02A5A1"/>
<path fill-rule="evenodd" clip-rule="evenodd" d="M32.3428 9.36946C32.3428 10.3774 32.1641 11.1941 31.5916 11.9896C31.3438 12.3336 31.1678 12.5061 30.877 12.7992C30.5473 13.1319 30.1499 13.2373 29.9873 13.4798C30.7729 13.4975 31.7068 14.1617 32.2389 14.6923C33.0192 15.4701 33.1681 15.9741 33.4048 16.9898H33.5435C33.6606 16.4867 34.5157 15.7445 34.9377 15.4745C35.5134 15.1065 36.2666 14.8193 37.1922 14.8193C38.1417 14.8193 38.2224 15.1026 37.6005 14.3181C36.9284 13.4708 36.6157 11.8207 36.9813 10.7293C37.0366 10.5647 37.0966 10.4295 37.1651 10.2665C37.2392 10.092 37.3129 9.99621 37.3305 9.78511C37.0335 9.79173 37.0433 9.8993 36.7317 10.0176C35.4883 10.4895 33.9334 10.1936 32.844 9.37623C32.7582 9.31189 32.6872 9.2671 32.6093 9.19531C32.4882 9.08437 32.5086 9.04432 32.3428 9C32.2636 9.16443 32.3428 9.15875 32.3428 9.36946Z" fill="#F9AE3E"/>
</svg>
