<svg xmlns="http://www.w3.org/2000/svg" version="1.1" xmlns:xlink="http://www.w3.org/1999/xlink" xmlns:svgjs="http://svgjs.com/svgjs" width="512" height="512" x="0" y="0" viewBox="0 0 24 24" style="enable-background:new 0 0 512 512" xml:space="preserve" class=""><g><g xmlns="http://www.w3.org/2000/svg" id="Layer_2" data-name="Layer 2"><path d="m23.75 10v9a4.213 4.213 0 0 1 -.04.62 4.661 4.661 0 0 1 -.49 1.56 4.757 4.757 0 0 1 -4.22 2.57h-14a4.757 4.757 0 0 1 -4.22-2.57 4.661 4.661 0 0 1 -.49-1.56 4.213 4.213 0 0 1 -.04-.62v-9a3.751 3.751 0 0 1 3.75-3.75h16a3.751 3.751 0 0 1 3.75 3.75z" fill="#fdc142" data-original="#fdc142" class=""></path><path d="m23.75 10v1.33l-9.44 5.25a4.747 4.747 0 0 1 -4.62 0l-9.44-5.25v-1.33a3.751 3.751 0 0 1 3.75-3.75h16a3.751 3.751 0 0 1 3.75 3.75z" fill="#fd9e28" data-original="#fd9e28" class=""></path><path d="m20.75 3v10l-6.44 3.58a4.747 4.747 0 0 1 -4.62 0l-6.44-3.58v-10a2.748 2.748 0 0 1 2.75-2.75h12a2.748 2.748 0 0 1 2.75 2.75z" fill="#f1f2f2" data-original="#f1f2f2" class=""></path><path d="m7.54 15.38-6.76 5.8a4.661 4.661 0 0 1 -.49-1.56l5.85-5.01z" fill="#ffe578" data-original="#ffe578" class=""></path><path d="m23.71 19.62a4.661 4.661 0 0 1 -.49 1.56l-6.76-5.8 1.4-.77z" fill="#ffe578" data-original="#ffe578" class=""></path><g fill="#606060"><path d="m12 6.75h-4a.75.75 0 0 1 0-1.5h4a.75.75 0 0 1 0 1.5z" fill="#606060" data-original="#606060"></path><path d="m16 10.75h-8a.75.75 0 0 1 0-1.5h8a.75.75 0 0 1 0 1.5z" fill="#606060" data-original="#606060"></path></g></g></g></svg>