<svg xmlns="http://www.w3.org/2000/svg" version="1.1" xmlns:xlink="http://www.w3.org/1999/xlink" xmlns:svgjs="http://svgjs.com/svgjs" width="512" height="512" x="0" y="0" viewBox="0 0 24 24" style="enable-background:new 0 0 512 512" xml:space="preserve" class=""><g><g xmlns="http://www.w3.org/2000/svg" id="Layer_2" data-name="Layer 2"><path d="m22.75 6v9a4.754 4.754 0 0 1 -4.75 4.75h-13a4.754 4.754 0 0 1 -4.75-4.75v-9a2.42 2.42 0 0 1 .02-.38 4.751 4.751 0 0 1 4.73-4.37h13a4.751 4.751 0 0 1 4.73 4.37 2.42 2.42 0 0 1 .02.38z" fill="#fdc142" data-original="#fdc142" class=""></path><circle cx="19" cy="18" fill="#38cb89" r="4.75" data-original="#49aaee" class=""></circle><path d="m18.5 19.75a.744.744 0 0 1 -.53-.22l-1-1a.75.75 0 0 1 1.06-1.06l.47.469 1.47-1.469a.75.75 0 0 1 1.06 1.06l-2 2a.744.744 0 0 1 -.53.22z" fill="#ffffff" data-original="#ffffff" class=""></path><path d="m22.73 5.62-8.92 4.96a4.747 4.747 0 0 1 -4.62 0l-8.92-4.96a4.751 4.751 0 0 1 4.73-4.37h13a4.751 4.751 0 0 1 4.73 4.37z" fill="#ffe578" data-original="#ffe578" class=""></path></g></g></svg>