<svg width="512" height="512" viewBox="0 0 512 512" fill="none" xmlns="http://www.w3.org/2000/svg">
<path fill-rule="evenodd" clip-rule="evenodd" d="M106.551 360.864H70.7436V311.33H102.373C112.538 311.33 124.933 313.366 129.966 321.336C134.244 328.106 133.332 340.209 130.664 347.379C129.45 350.64 127.535 352.367 125.202 354.448C120.907 358.276 112.71 360.864 106.551 360.864ZM92.8246 279.697H70.7436V231.956C70.7436 229.5 71.8627 230.766 77.2981 230.766C91.1151 230.771 108.112 229.064 118.514 234.316C130.607 240.422 130.102 264.247 121.939 272.41C116.2 278.147 104.278 279.697 92.8251 279.697H92.8246ZM23.0005 196.748V392.492C23.0005 394.548 23.4421 394.801 23.597 396.67H104.164C113.888 396.67 121.374 395.966 129.299 394.35C144.329 391.297 161.493 381.402 170.3 367.918C179.415 353.957 183.421 333.499 176.551 317.716C175.584 315.498 174.369 312.986 173.056 311.067C166.975 302.195 156.184 296.326 145.999 293.364C143.635 292.675 143.629 293.369 142.358 291.632C145.492 291.374 151.925 287.45 154.491 285.865C171.969 275.059 178.851 255.492 173.641 235.288C172.644 231.419 171.089 226.522 169.417 223.398C158.111 202.252 128.628 194.955 102.97 194.955H24.7905C23.4152 194.955 23 195.37 23 196.748H23.0005Z" fill="#02A5A1"/>
<path fill-rule="evenodd" clip-rule="evenodd" d="M263.507 361.461C240.306 361.461 227.358 344.751 218.748 344.751C213.601 344.751 211.768 344.27 207.256 349.369C206.208 350.554 205.678 351.46 204.83 352.914L193.086 372.202C197.588 378.926 214.24 387.54 222.155 390.877C248.016 401.774 285.151 403.278 308.527 385.59L318.882 376.253C329.98 364.282 338.775 339.95 333.224 317.407C331.24 309.35 325.278 298.291 319.103 293.329C291.634 271.256 245.007 272.329 245.007 251.649C245.007 245.608 245.499 241.785 249.578 237.126C250.976 235.526 250.545 235.84 252.383 234.559C262.424 227.561 281.035 229.702 291.567 234.928C299.421 238.827 311.743 248.651 319.113 238.027L331.541 214.648C331.541 212.977 330.538 212.825 329.441 211.974C324.05 207.812 320.26 204.688 313.722 202.034C297.745 195.542 288.992 192.57 268.282 192.57C228.874 192.57 197.843 221.241 200.804 256.449C201.932 269.863 203.004 278.061 211.923 289.51C230.686 313.599 270.427 311.021 285.735 326.101C289.613 329.924 290.503 336.396 289.779 342.963C289.134 348.812 286.558 353.835 281.677 356.95C277.484 359.623 270.131 361.461 263.507 361.461Z" fill="#02A5A1"/>
<path fill-rule="evenodd" clip-rule="evenodd" d="M361.38 195.552V387.717C361.38 389.56 361.083 389.064 361.085 390.107C361.087 391.15 361.38 390.654 361.38 392.492C361.38 394.963 359.778 397.864 363.17 397.864H408.524C409.902 397.864 410.317 397.449 410.317 396.072V241.506C410.317 233.171 406.56 222.026 403.035 215.959C395.089 202.267 382.982 194.605 367.297 191.42C358.397 189.613 361.38 190.965 361.38 195.552Z" fill="#02A5A1"/>
<path fill-rule="evenodd" clip-rule="evenodd" d="M415.091 116.774C415.091 129.799 412.782 140.352 405.384 150.631C402.183 155.077 399.908 157.305 396.151 161.093C391.89 165.392 386.754 166.754 384.653 169.889C394.805 170.117 406.873 178.7 413.749 185.556C423.831 195.608 425.755 202.12 428.814 215.245H430.607C432.121 208.743 443.17 199.152 448.623 195.663C456.062 190.908 465.795 187.197 477.755 187.197C490.025 187.197 491.068 190.858 483.032 180.72C474.347 169.772 470.306 148.449 475.031 134.346C475.745 132.22 476.52 130.473 477.406 128.366C478.363 126.111 479.315 124.873 479.543 122.145C475.704 122.231 475.831 123.621 471.805 125.149C455.738 131.247 435.645 127.424 421.568 116.862C420.459 116.03 419.542 115.451 418.535 114.524C416.97 113.09 417.233 112.573 415.091 112C414.068 114.125 415.091 114.051 415.091 116.774Z" fill="#F9AE3E"/>
</svg>
